<svg xmlns="http://www.w3.org/2000/svg" xmlns:xlink="http://www.w3.org/1999/xlink" width="648" height="444" viewBox="0 0 648 444">
    <defs>
        <circle id="a" cx="33.5" cy="33.5" r="33.5"/>
        <circle id="c" cx="33.5" cy="33.5" r="33.5"/>
    </defs>
    <g fill="none" fill-rule="evenodd">
        <path fill="#E8E3F3" fill-rule="nonzero" d="M590.465 253.045c-22.079 29.666-14.793 72.01-2.03 105.746 4.275 11.293 9.13 23.238 6.914 35.525-2.707 15.02-15.43 26.275-28.655 32.405-24.11 11.171-52.589 9.388-74.155-4.689-18.61-12.149-31.711-32.338-50.683-43.907-31.75-19.356-72.97-10.708-108.308 4.07-25 10.453-52.386 23.917-76.75 14.264-17.144-6.793-28.688-24.083-34.762-42.566-2.932-8.924-4.985-18.61-10.828-25.596-3.474-4.152-8.064-7.046-12.785-9.465-43.08-22.089-98.495-8.283-140.262-32.93-28.198-16.643-45.748-48.943-53.04-82.9-7.292-33.956-5.488-69.801-2.583-105.034C4.602 72.93 7.868 46.175 23.24 26.5 39.5 5.697 66.75-2.57 91.119.688c24.368 3.258 46.216 16.512 65.329 32.333 23.906 19.737 45.9 44.515 75.632 52.009 20.252 5.102 41.767 1.49 62.82-.105 35.19-2.662 70.258.403 105.11 3.865 33.364 3.314 66.96 7.014 98.558 17.876 22.36 7.687 40.086 22.216 61.139 32.145 13.72 6.472 28.818 7.974 41.733 16.335 15.937 10.3 30.34 28.545 25.665 50.44-4.415 20.814-24.91 31.715-36.64 47.46z"/>
        <rect width="223" height="162" x="56" y="50" fill="#FAFAFD" fill-rule="nonzero" rx="13"/>
        <path fill="#D1CAE3" fill-rule="nonzero" d="M146 79h110v112H146z" opacity=".7"/>
        <path fill="#BBADDD" fill-rule="nonzero" d="M71 72h55v26H71zM71 109h55v28H71z"/>
        <path fill="#F4F9E5" d="M213 75h18v17h-18z"/>
        <path fill="#F8FFE5" d="M222 99h18v17h-18zM214 143h18v17h-18z" opacity=".87"/>
        <path fill="#BBADDD" fill-rule="nonzero" d="M71 147h55v28H71z"/>
        <path fill="#FFF" fill-rule="nonzero" d="M131 167h7v20h-7z"/>
        <ellipse cx="106.5" cy="426.5" fill="#DCD6ED" fill-rule="nonzero" rx="84.5" ry="11.5"/>
        <rect width="221" height="161" x="48" y="43" stroke="#343434" rx="13"/>
        <path fill="#DDB095" fill-rule="nonzero" d="M162.47 223.232s1.06 8.368-1.588 11.715c-2.647 3.348-6.882 25.664-6.882 25.664V274s16.412-25.105 19.588-35.147c3.177-10.042 0-17.853 0-17.853l-11.117 2.232z"/>
        <path fill="#7CC5D9" d="M161.324 183l.228.263a35.197 35.197 0 0 1 6.447 10.928c3.54 9.628 11.149 33.36 8.423 35.754-3.774 3.314-14.559 5.523-15.098 4.97-.54-.552-11.324-34.794-11.324-34.794L161.324 183z"/>
        <path fill="#3F3D56" fill-rule="nonzero" d="M143.104 416.901s12.739 2.723 13.27 0c.34-1.693.874-3.338 1.592-4.901 0 0 11.547.494 8.532 10.879a4.327 4.327 0 0 1-1.853 2.45c-2.75 1.727-9.227 5.799-12.518 7.909-2.473 1.585-6.026.4-8.563-.866-1.87-.94-2.885-3.055-2.473-5.149l2.013-10.322zM104.707 418.678s-13.172 2.6-13.72 0A20.044 20.044 0 0 0 89.34 414s-11.915.47-8.83 10.355a4.249 4.249 0 0 0 1.951 2.384c2.858 1.657 9.525 5.526 12.916 7.533 2.8 1.658 6.94.144 9.571-1.17 1.502-.743 2.307-2.333 1.98-3.907l-2.221-10.517z"/>
        <ellipse cx="127" cy="150" fill="#DDB095" fill-rule="nonzero" rx="14" ry="13"/>
        <path fill="#DDB095" fill-rule="nonzero" d="M138.615 156.106s-3.936 16.851 0 18.958c3.936 2.106-23.615 0-23.615 0s6.185-14.218 3.374-18.958c-2.812-4.739 20.241 0 20.241 0z"/>
        <path fill="#2F2E41" fill-rule="nonzero" d="M150.071 271.49s4.908 7.168 3.272 29.221c-1.636 22.054-3.272 45.21-3.272 45.21s11.996 69.47 8.18 71.124c-3.818 1.654-16.358 3.308-17.994 1.654-1.636-1.654-9.27-66.161-9.27-66.161l-7.087-52.93-10.905 60.649s-5.998 58.994-10.36 61.75c-3.118 1.971-9.302.56-12.574-.404a2.876 2.876 0 0 1-2.058-2.889c.4-9.277 2.194-45.89 6.453-68.382 4.907-25.913-4.907-77.74 3.817-78.842 8.724-1.103 51.798 0 51.798 0z"/>
        <path fill="#7CC5D9" d="M112.033 172.859s2.198-9.87 10.443-8.774c8.245 1.097 13.742.548 15.39 6.032 1.65 5.484 19.239 9.87 19.239 9.87s4.397.549 3.847 7.677c-.55 7.129-11.542 33.45-11.542 33.45s.55 21.934 3.298 31.805c2.748 9.87 2.748 21.934-3.298 24.676-6.047 2.741-43.973 12.612-52.768.548 0 0-4.947-17.547-1.649-24.676 3.298-7.129-.55-35.095-.55-35.095L84 195.342s3.298-10.968 12.642-14.258a55.997 55.997 0 0 0 15.39-8.225z"/>
        <path fill="#2F2E41" fill-rule="nonzero" d="M143 141.948s-2.141 1.567-2.676 5.225c-.536 3.659-3.822-2.084-4.588 5.49-.765 7.575-13.611 12.8-18.428 9.143-4.818-3.658-12.846-26.652-1.606-30.31 11.24-3.658 22.48-3.135 24.622.523 2.14 3.658 2.676 9.929 2.676 9.929z"/>
        <path fill="#000" fill-rule="nonzero" d="M131.527 152.665c.765-7.575 4.05-1.832 4.586-5.49.535-3.659 2.676-5.226 2.676-5.226s-.535-6.272-2.676-9.93c-1.024-1.75-4.134-2.78-8.327-2.98 5.785-.26 10.267.807 11.538 2.98 2.14 3.658 2.676 9.93 2.676 9.93s-2.14 1.567-2.676 5.226c-.535 3.658-3.821-2.085-4.586 5.49-.65 6.422-9.978 11.153-15.738 10.217 5.49-.737 11.989-4.894 12.527-10.217z" opacity=".1"/>
        <ellipse cx="454.5" cy="427" fill="#DCD6ED" fill-rule="nonzero" rx="193.5" ry="17"/>
        <rect width="232" height="157" x="319" y="119" fill="#D1CAE3" fill-rule="nonzero" rx="5" transform="matrix(-1 0 0 1 870 0)"/>
        <g transform="translate(469 132)">
            <mask id="b" fill="#fff">
                <use xlink:href="#a"/>
            </mask>
            <use fill="#FAFAFA" opacity=".8" xlink:href="#a"/>
            <g mask="url(#b)">
                <g transform="translate(1.942 3.884)">
                    <path fill="#512DA8" d="M0 66.47h8.843a71.825 71.825 0 0 0 1.813-5.562 11.117 11.117 0 0 1 2.884-5.884c.467-.522.883-1.087 1.242-1.689a7.937 7.937 0 0 0 .782-4.808 12.5 12.5 0 0 0-.228-1.362c-.387-1.74-1.034-3.413-1.576-5.11a1.936 1.936 0 0 0-1.58-1.308 3.132 3.132 0 0 0-1.728.2c-.12.049-.236.109-.346.179-.965.583-1.466 1.774-1.87 2.863A33060.972 33060.972 0 0 0 1.63 61.76C1.1 63.18.574 64.6.126 66.046c-.045.143-.085.282-.126.424z"/>
                    <path fill="#2F2E41" fill-rule="nonzero" d="M36.814 1.203c2.2.744 4.191 2.482 4.641 4.762.209 1.056.081 2.154.257 3.217.407 2.464 2.34 4.346 4.121 6.094 1.782 1.748 3.623 3.78 3.753 6.274.142 2.731-1.836 5.29-1.494 8.003.398 3.153 3.724 5.196 4.546 8.265.549 2.05-.124 4.257-1.23 6.066-2.11 3.448-5.715 5.79-9.555 7.044-3.839 1.255-7.928 1.52-11.966 1.562-4.918.051-10.257-.371-13.952-3.62a11.193 11.193 0 0 1-3.71-7.285c-.351-3.763 1.218-7.652.136-11.274-.681-2.279-2.39-4.36-2.135-6.725.25-2.313 2.267-3.952 3.651-5.82 1.292-1.745 2.077-3.805 2.845-5.835l2.63-6.95c.516-1.365 1.084-2.802 2.236-3.698C23.745-.396 27.212-.066 29.734.28c2.34.321 4.83.163 7.08.923z"/>
                    <path fill="#DFAD90" fill-rule="nonzero" d="M34.78 24.103s-.257 7.73.515 8.503c.772.773-3.089 5.927-3.089 5.927l-6.949-.258-3.603-2.834 3.088-4.123s1.287-6.7.258-8.245c-1.03-1.546 9.78 1.03 9.78 1.03z"/>
                    <ellipse cx="30.533" cy="17.79" fill="#F7C4A7" fill-rule="nonzero" rx="9.266" ry="9.276" transform="matrix(-1 0 0 1 61.067 0)"/>
                    <path fill="#512DA8" d="M25.784 66.47h-7.51c-.282-.51-.547-1.04-.852-1.52v-.005a4.161 4.161 0 0 0-1.369-1.435c-.36-.165-.7-.369-1.014-.608a2.62 2.62 0 0 1-.62-1.158 17.965 17.965 0 0 1-.847-5c-.012-.57 0-1.15-.032-1.72a7.243 7.243 0 0 0-.171-1.326 10.443 10.443 0 0 0-1.112-2.52c-1.019-1.855-2.04-3.71-3.063-5.566a3.895 3.895 0 0 1-.208-1.631c.022-.746.25-1.47.66-2.092.142-.257.297-.514.46-.763a16.934 16.934 0 0 1 2.183-2.79 17.662 17.662 0 0 1 6.216-4.212c.295-.1.576-.236.835-.408.307-.259.566-.57.766-.917.815-1.228 1.809-2.61 3.28-2.533a2.014 2.014 0 0 1 1.555-.106c.078.02.154.045.228.074.562.249 1.108.534 1.634.852a7.575 7.575 0 0 0 4.399.8c.177-.013.351-.057.513-.131.172-.11.33-.238.473-.383a2.714 2.714 0 0 1 2.7-.433c.421.15.793.413 1.076.759.268.338.456.746.753 1.064.77.824 2.041.857 3.165.852 2.335-.065 4.67.15 6.953.64a13.212 13.212 0 0 1 5.475 2.651l.004.004c.22.188.424.38.627.584.464.436.832.964 1.084 1.55.31.798.269 1.7.55 2.511.31.91.998 1.652 1.275 2.565.212.693.183 1.46.533 2.088-.016.012-.028.025-.044.037-1.483 1.305-2.75 3.018-4.237 4.31a8.556 8.556 0 0 0-2.15 2.406c-.108.21-.196.428-.265.653-.167.78-.241 1.576-.22 2.373-.188 3.813-2.253 7.271-4.562 10.305-.045.061-.09.122-.139.18H25.784z"/>
                    <path fill="#512DA8" d="M49.952 52.96c.35 2.435.703 4.868 1.059 7.3.161 1.302.404 2.593.725 3.866.211.787.484 1.557.676 2.344h10.607c-.006-.44-.04-.88-.102-1.317a21.795 21.795 0 0 0-1.324-4.571 8558.091 8558.091 0 0 1-3.698-10.016c-.526-1.423-.978-2.911-1.556-4.322a13 13 0 0 0-.33-.775c-.615-1.354-2.322-.8-3.585-.595a3.4 3.4 0 0 0-1.002.285 2.587 2.587 0 0 0-.941.89c-1.198 1.773-.937 4.118-.627 6.238l.098.673z"/>
                    <ellipse cx="29.761" cy="12.379" fill="#2F2E41" fill-rule="nonzero" rx="10.038" ry="5.411" transform="matrix(-1 0 0 1 59.523 0)"/>
                </g>
            </g>
        </g>
        <path fill="#957FC9" fill-rule="nonzero" d="M426 134h-66v5h66zM535 213h-23v4h23zM536 223h-67v5h67z"/>
        <path fill="#F2F2F2" fill-rule="nonzero" d="M441 147h-94v5h94zM441 160h-94v5h94zM431 182h-94v5h94zM431 195h-94v6h94zM431 208h-94v5h94zM431 221h-94v5h94z"/>
        <rect width="226" height="153" x="223" y="174" fill="#A593D1" rx="5"/>
        <path fill="#512DA8" d="M348 198h66v4h-66zM240 274h23v5h-23zM240 284h67v4h-67z"/>
        <path fill="#F2F2F2" fill-rule="nonzero" d="M333 216h94v4h-94zM333 227h94v4h-94zM333 240h94v4h-94zM333 253h94v5h-94zM333 265h94v5h-94zM333 278h94v5h-94zM333 291h94v5h-94zM333 304h94v5h-94z"/>
        <path fill="#000" fill-rule="nonzero" d="M638 405.41c0 26.621-37.213 18.387-82.776 18.387-45.564 0-82.224 8.234-82.224-18.386C473 378.79 510.208 373 555.771 373c45.564 0 82.229 5.79 82.229 32.41z" opacity=".1"/>
        <path fill="#6B697C" fill-rule="nonzero" d="M638 401.034c0 27.133-37.213 18.74-82.776 18.74-45.564 0-82.224 8.393-82.224-18.74S510.208 368 555.771 368c45.564 0 82.229 5.901 82.229 33.034z"/>
        <path fill="#FFC1C7" fill-rule="nonzero" d="M481.767 317l-1.637 2.192s-19.914 2.154-19.106 5.88c.808 3.725 23.976-4.967 23.976-4.967L481.767 317z"/>
        <path fill="#3F3D56" fill-rule="nonzero" d="M520.328 315s-22.876 8-35.328 4.571L490.792 331s29.536-.857 34.749-6c5.212-5.143-5.213-10-5.213-10z"/>
        <circle cx="504" cy="242" r="15" fill="#FFC1C7" fill-rule="nonzero"/>
        <path fill="#FFC1C7" fill-rule="nonzero" d="M517.926 255.296a12.47 12.47 0 0 0 1.922 2.867 24.505 24.505 0 0 0 7.152 5.76A227.647 227.647 0 0 1 501.518 268c.904-3.423-.285-7.084-1.883-10.199s-3.635-6.018-4.635-9.41l10.028.29c1.82.053 3.645.111 5.465.016 1.36-.072 3.625-.949 4.894-.626 2.683.683 1.368 4.664 2.539 7.225z"/>
        <path fill="#2F2E41" fill-rule="nonzero" d="M550.515 324.188l8.313 10.05s13.855 32.664-16.348 36.014c-30.204 3.35-52.648-2.512-52.648-2.512s-12.192-5.863-12.47-1.396c-.276 4.467-1.385 17.03-8.035 29.314l-5.82 13.4s-3.047 3.072-2.216 7.26c.831 4.187-18.565 5.583-18.288 0 0 0 2.77-4.747 2.77-7.539 0-2.791 4.434-9.492 4.434-9.492l8.036-40.202s-.554-20.66 18.288-16.75c18.843 3.908 45.72-.838 45.72-.838L528.349 320l22.167 4.188z"/>
        <path fill="#000" fill-rule="nonzero" d="M550.515 324.188l8.313 10.05s13.855 32.664-16.348 36.014c-30.204 3.35-52.648-2.512-52.648-2.512s-12.192-5.863-12.47-1.396c-.276 4.467-1.385 17.03-8.035 29.314l-5.82 13.4s-3.047 3.072-2.216 7.26c.831 4.187-18.565 5.583-18.288 0 0 0 2.77-4.747 2.77-7.539 0-2.791 4.434-9.492 4.434-9.492l8.036-40.202s-.554-20.66 18.288-16.75c18.843 3.908 45.72-.838 45.72-.838L528.349 320l22.167 4.188z" opacity=".1"/>
        <path fill="#2F2E41" fill-rule="nonzero" d="M519.062 323.278s25.387-9.686 39.537 10.888c0 0 3.607 31.848-10.82 33.257-14.428 1.409-33.295 1.127-37.734-3.664s-32.462-18.32-32.462-18.32-13.949-7.227-16.685 2.165c-2.736 9.39-3.014 11.646-3.014 11.646s-14.427 10.71-20.253 12.682c0 0-3.885 5.637-6.104 5.637-2.22 0-15.815 3.1-14.428-7.328l22.474-20.856 22.473-22.265s6.382-9.582 22.751-4.51a334.094 334.094 0 0 0 33.017 8.174l1.248-7.506z"/>
        <path fill="#A0A4B1" fill-rule="nonzero" d="M460.338 414.88s5.375 14.34.85 16.132c-4.527 1.793-14.145.598-14.145.598s-11.316-1.494-14.144-1.195c-2.83.299-14.428-2.091-12.73-6.872 1.697-4.78 10.466-3.585 10.466-3.585l7.921-3.883s.849-2.988 2.83-1.793c1.98 1.195 7.637 5.676 18.952.598zM431.272 375.407s5.658 13.688-3.502 12.523c-9.16-1.165-16.165-3.204-18.859-3.495-2.591-.28-9.919-2.986-8.795-8.375.06-.349.085-.704.073-1.058 0-.724.91-2.143 8.184-1.925 0 0 5.388 0 7.543-4.077 0 0 8.082 11.067 15.356 6.407z"/>
        <path fill="#535168" fill-rule="nonzero" d="M495 264.63s19.552-12.667 35.845 0C547.138 277.296 558 335 558 335l-37.746-8.726s-1.629-6.755-3.801-7.881c-2.173-1.126-2.444-5.912-2.444-5.912s-11.677-3.659-10.862-17.733C503.96 280.674 495 264.63 495 264.63z"/>
        <path fill="#535168" fill-rule="nonzero" d="M504.424 265h-10.177s-6.052 7.003-6.877 24.649l-3.3 14.005s-6.878 16.806-2.752 19.607c4.126 2.801 12.103 2.521 13.754-3.081 1.65-5.602 12.928-38.094 12.928-38.094L504.424 265z"/>
        <path fill="#41352E" fill-rule="nonzero" d="M501.647 221.121a15.162 15.162 0 0 1 15.608 2.544c5.409 4.797 6.5 12.622 7.868 19.697 1.367 7.076 4.118 14.955 10.827 17.682a28.384 28.384 0 0 1-9.09-.262l10.14 9.03-17.08-5.533c-5.362-1.736-10.992-3.495-16.543-2.514-9.197 1.625-15.6 10.217-24.432 13.235l.981-4.76-5.926-.045a11.555 11.555 0 0 0 3.395-3.954 3.292 3.292 0 0 0-2.267-1.178c-2.47-15.314 6.68-30.451 18.604-40.456 2.346-1.968 4.941-3.858 7.97-4.35 3.03-.492 6.566.854 7.62 3.719"/>
        <g transform="translate(240 192)">
            <mask id="d" fill="#fff">
                <use xlink:href="#c"/>
            </mask>
            <use fill="#FAFAFA" opacity=".8" xlink:href="#c"/>
            <g fill-rule="nonzero" mask="url(#d)">
                <g transform="translate(3.884 .971)">
                    <path fill="#575A89" d="M0 66.029l.552-7.4 2.036-5.263 6.534 12.663H0z"/>
                    <path fill="#000" d="M0 66.029l.552-7.4 2.036-5.263 6.534 12.663H0z" opacity=".1"/>
                    <path fill="#A0616A" d="M14.595 25.287s5.77 14.704 2.447 17.505c-3.322 2.8 18.532-4.727 18.532-4.727l-.524-1.925s-7.168-2.8-3.672-10.853c3.497-8.052-16.783 0-16.783 0z"/>
                    <path fill="#000" d="M14.595 25.287s5.77 14.704 2.447 17.505c-3.322 2.8 18.532-4.727 18.532-4.727l-.524-1.925s-7.168-2.8-3.672-10.853c3.497-8.052-16.783 0-16.783 0z" opacity=".1"/>
                    <ellipse cx="23.26" cy="19.447" fill="#A0616A" rx="12.314" ry="12.211"/>
                    <path fill="#575A89" d="M51.993 45.827l-.133 2.686c-.173 3.478-.483 9.996-.794 17.516H4.253a23.784 23.784 0 0 1-2.979-5.434 5.96 5.96 0 0 1-.35-1.75c-.258-4.66 3.84-11.166 6.734-11.786 3.277-.707 9.487-7.385 9.487-7.385.04.517.339.976.79 1.216v.004a3.16 3.16 0 0 0 1.624.362c2.023 0 10.922-4.185 13.779-5.553.56-.267.887-.427.887-.427a66.11 66.11 0 0 0 10.18 3.52c3.527.896 6.378 3.537 7.588 7.03z"/>
                    <path fill="#2F2E41" d="M13.189 23.475c.47.135.977-.063 1.21-.473.971-1.451-.818-3.322-.43-5 .31-1.345 1.923-2.144 2.253-3.484.32-1.303-.668-2.771 0-3.95.523-.924 1.83-1.167 2.922-1.005 1.093.162 2.13.617 3.235.68 1.47.086 2.873-.528 4.312-.832 1.439-.304 3.194-.185 4.04.959 1.087 1.468-.016 3.512.363 5.269.3 1.395 3.724 2.374 4.034 1.43a9.1 9.1 0 0 0-.413-6.673c-.505-.86-.908-1.77-1.202-2.714-.277-1.31.159-2.716-.298-3.98C32.599 2 30.562 1.133 28.67.956c-1.891-.176-3.813.14-5.694-.12C21.293.6 19.662-.09 17.963.01c-2.039.12-3.813 1.365-5.226 2.762-1.413 1.397-2.612 3.004-4.217 4.201-.492.32-.945.69-1.352 1.103-.818.943-.9 2.288-.673 3.49.227 1.201.722 2.347.93 3.552.197 1.132.137 2.289.221 3.433a5.814 5.814 0 0 0 1.063 3.241 3.286 3.286 0 0 0 2.512 1.243c.34.008.628-.282.971-.206.43.094.616.48.997.646z"/>
                    <path fill="#000" d="M58.379 66.029H44.763c-1.036-8.002-1.891-16.367-1.891-16.367l2.75-1.269 5.592-3.168s.41 1.024 1.068 2.766c1.406 3.726 3.956 10.738 6.097 18.038z" opacity=".1"/>
                    <path fill="#575A89" d="M60.203 66.029H44.698c-2.297-8.684-4.563-18.124-4.563-18.124l5.9-4.489 6.938 1.976s4.06 10.006 7.23 20.637z"/>
                </g>
            </g>
        </g>
        <path fill="#00BCD4" d="M62.867 417.46c1.8-1.68 3.488-3.686 4.002-6.068.514-2.381-.5-5.301-2.798-6.178-2.57-.988-5.316.796-7.394 2.602-2.078 1.807-4.472 3.871-7.196 3.488a11.013 11.013 0 0 0 3.385-10.323 4.262 4.262 0 0 0-.94-2.086c-1.424-1.534-4.01-.877-5.72.332-5.426 3.834-6.946 11.244-6.976 17.916-.55-2.41-.088-4.918-.103-7.373-.014-2.455-.683-5.205-2.753-6.532a8.336 8.336 0 0 0-4.215-.988c-2.438-.089-5.14.154-6.822 1.946-2.078 2.212-1.534 5.965.265 8.42s4.545 3.989 7.07 5.685c1.917 1.29 3.863 2.794 5.046 4.836.155.273.28.563.374.863h15.295a42.885 42.885 0 0 0 9.48-6.54z"/>
        <g transform="matrix(-1 0 0 1 649 407)">
            <ellipse cx="30.484" cy="18.208" fill="#8ED9E5" rx="29.516" ry="4.792"/>
            <path fill="#00BCD4" d="M42.6 13.622a8.518 8.518 0 0 0 2.793-4.244c.359-1.68-.35-3.702-1.958-4.316-1.795-.686-3.707.56-5.152 1.806-1.446 1.246-3.125 2.709-5.019 2.438a7.737 7.737 0 0 0 2.361-7.223A3.06 3.06 0 0 0 34.97.62c-.997-1.065-2.801-.605-3.995.235-3.788 2.708-4.848 7.855-4.866 12.514-.386-1.68-.063-3.431-.071-5.156-.01-1.724-.476-3.611-1.922-4.514a5.772 5.772 0 0 0-2.944-.695c-1.697-.064-3.591.108-4.758 1.363-1.445 1.562-1.068 4.171.188 5.887 1.257 1.715 3.17 2.78 4.929 3.973a10.88 10.88 0 0 1 3.519 3.376c.108.194.198.396.27.605h10.673a29.881 29.881 0 0 0 6.608-4.586z"/>
        </g>
    </g>
</svg>
