<svg width="111" height="107" viewBox="0 0 111 107" fill="none" xmlns="http://www.w3.org/2000/svg">
<circle cx="5.5" cy="5.5" r="5.5" fill="#879FF7"/>
<circle cx="30.5" cy="5.5" r="5.5" fill="#879FF7"/>
<circle cx="55.5" cy="5.5" r="5.5" fill="#879FF7"/>
<circle cx="80.5" cy="5.5" r="5.5" fill="#879FF7"/>
<circle cx="5.5" cy="101.5" r="5.5" fill="#879FF7"/>
<circle cx="30.5" cy="101.5" r="5.5" fill="#879FF7"/>
<circle cx="55.5" cy="101.5" r="5.5" fill="#879FF7"/>
<circle cx="80.5" cy="101.5" r="5.5" fill="#879FF7"/>
<circle cx="5.5" cy="77.5" r="5.5" fill="#879FF7"/>
<circle cx="30.5" cy="77.5" r="5.5" fill="#879FF7"/>
<circle cx="55.5" cy="77.5" r="5.5" fill="#879FF7"/>
<circle cx="80.5" cy="77.5" r="5.5" fill="#879FF7"/>
<circle cx="5.5" cy="53.5" r="5.5" fill="#879FF7"/>
<circle cx="30.5" cy="53.5" r="5.5" fill="#879FF7"/>
<circle cx="55.5" cy="53.5" r="5.5" fill="#879FF7"/>
<circle cx="80.5" cy="53.5" r="5.5" fill="#879FF7"/>
<circle cx="5.5" cy="29.5" r="5.5" fill="#879FF7"/>
<circle cx="30.5" cy="29.5" r="5.5" fill="#879FF7"/>
<circle cx="55.5" cy="29.5" r="5.5" fill="#879FF7"/>
<circle cx="80.5" cy="29.5" r="5.5" fill="#879FF7"/>
<circle cx="105.5" cy="5.5" r="5.5" fill="#879FF7"/>
<circle cx="105.5" cy="101.5" r="5.5" fill="#879FF7"/>
<circle cx="105.5" cy="77.5" r="5.5" fill="#879FF7"/>
<circle cx="105.5" cy="53.5" r="5.5" fill="#879FF7"/>
<circle cx="105.5" cy="29.5" r="5.5" fill="#879FF7"/>
</svg>
