<svg width="150" height="83" viewBox="0 0 150 83" fill="none" xmlns="http://www.w3.org/2000/svg">
<path d="M37.4099 82.48C29.7939 82.48 23.1699 81.104 17.5379 78.352C11.9059 75.536 7.58588 71.568 4.57788 66.448C1.56988 61.328 0.0658753 55.376 0.0658753 48.592C0.0658753 39.184 1.82588 30.832 5.34588 23.536C8.92988 16.24 13.7619 10.608 19.8419 6.64C25.9219 2.608 32.6739 0.591995 40.0979 0.591995C47.0099 0.591995 52.2579 2.384 55.8419 5.96799C59.4259 9.488 61.2179 14.16 61.2179 19.984C61.2179 23.888 60.5139 27.024 59.1059 29.392C57.7619 31.76 55.8099 32.944 53.2499 32.944C51.4579 32.944 50.0499 32.528 49.0259 31.696C48.0019 30.864 47.4899 29.648 47.4899 28.048C47.4899 27.472 47.6179 26.416 47.8739 24.88C48.2579 22.96 48.4499 21.424 48.4499 20.272C48.4499 14.448 45.3459 11.536 39.1379 11.536C34.9139 11.536 30.8819 12.912 27.0419 15.664C23.2019 18.416 20.0979 22.48 17.7299 27.856C15.3619 33.168 14.1779 39.504 14.1779 46.864C14.1779 54.544 16.3219 60.496 20.6099 64.72C24.8979 68.88 31.2339 70.96 39.6179 70.96C43.7779 70.96 47.9699 70.448 52.1939 69.424C56.4819 68.336 61.2179 66.704 66.4019 64.528C67.3619 64.144 68.1619 63.952 68.8019 63.952C69.8259 63.952 70.5939 64.336 71.1059 65.104C71.6179 65.872 71.8739 66.864 71.8739 68.08C71.8739 71.984 69.7619 74.864 65.5379 76.72C60.9939 78.704 56.2579 80.176 51.3299 81.136C46.4659 82.032 41.8259 82.48 37.4099 82.48ZM144.886 2.41599C146.678 2.672 147.894 3.216 148.534 4.048C149.238 4.88 149.59 5.968 149.59 7.31199C149.59 11.728 147.222 13.776 142.486 13.456L139.126 13.168C135.35 12.848 131.574 12.592 127.798 12.4C124.086 12.208 120.182 12.112 116.086 12.112H111.766C110.998 21.584 110.198 30.224 109.366 38.032L125.878 37.744C128.246 37.744 129.814 38.16 130.582 38.992C131.414 39.824 131.83 40.944 131.83 42.352C131.83 44.528 131.19 46.256 129.91 47.536C128.63 48.752 126.806 49.36 124.438 49.36H108.022L107.446 53.488C106.102 64.048 103.222 71.568 98.8064 76.048C94.4544 80.528 88.4384 82.768 80.7584 82.768C76.4064 82.768 72.4064 81.84 68.7584 79.984C65.1104 78.064 62.4224 75.76 60.6944 73.072C59.9904 71.984 59.6384 70.672 59.6384 69.136C59.6384 67.6 59.9904 66.256 60.6944 65.104C61.4624 63.952 62.3904 63.376 63.4784 63.376C64.2464 63.376 64.9824 63.632 65.6864 64.144C66.4544 64.656 67.4144 65.648 68.5664 67.12C71.6384 71.152 75.4464 73.168 79.9904 73.168C83.6384 73.168 86.6784 71.696 89.1104 68.752C91.6064 65.744 93.2064 61.04 93.9104 54.64L94.4864 49.36H89.8784C88.4064 49.36 87.1264 48.944 86.0384 48.112C85.0144 47.28 84.5024 46.096 84.5024 44.56C84.5024 42.576 85.0144 41.072 86.0384 40.048C87.0624 38.96 88.5664 38.416 90.5504 38.416C92.3424 38.416 94.1024 38.384 95.8304 38.32C96.5984 31.28 97.4304 22.736 98.3264 12.688C91.4144 13.328 86.5504 14.448 83.7344 16.048C80.9184 17.648 79.5104 20.016 79.5104 23.152C79.5104 25.328 80.1504 27.408 81.4304 29.392C81.8144 29.968 82.0064 30.544 82.0064 31.12C82.0064 32.272 81.3664 33.296 80.0864 34.192C78.8064 35.024 77.3664 35.44 75.7664 35.44C74.0384 35.44 72.5664 34.928 71.3504 33.904C70.5824 33.264 69.8464 31.952 69.1424 29.968C68.4384 27.984 68.0864 25.776 68.0864 23.344C68.0864 15.408 72.1504 9.648 80.2784 6.064C88.4704 2.48 100.406 0.687994 116.086 0.687994C126.966 0.687994 136.566 1.26399 144.886 2.41599Z" fill="#0B0707"/>
</svg>
