<?xml version="1.0" standalone="no"?><svg xmlns="http://www.w3.org/2000/svg" viewBox="0 0 1440 320"><path fill="#065cd0" fill-opacity="1" d="M0,224L24,213.3C48,203,96,181,144,181.3C192,181,240,203,288,229.3C336,256,384,288,432,266.7C480,245,528,171,576,133.3C624,96,672,96,720,122.7C768,149,816,203,864,234.7C912,267,960,277,1008,272C1056,267,1104,245,1152,202.7C1200,160,1248,96,1296,74.7C1344,53,1392,75,1416,85.3L1440,96L1440,320L1416,320C1392,320,1344,320,1296,320C1248,320,1200,320,1152,320C1104,320,1056,320,1008,320C960,320,912,320,864,320C816,320,768,320,720,320C672,320,624,320,576,320C528,320,480,320,432,320C384,320,336,320,288,320C240,320,192,320,144,320C96,320,48,320,24,320L0,320Z"></path></svg>